<svg width="24" height="32" viewBox="0 0 24 32" fill="none" xmlns="http://www.w3.org/2000/svg">
<path fill-rule="evenodd" clip-rule="evenodd" d="M20.6499 4.59614C15.9286 -0.266424 8.07144 -0.266422 3.35008 4.59614C-0.697384 8.76465 -1.12704 15.2133 2.33227 19.8723L10.8844 31.3903C11.1453 31.7417 11.5595 31.9492 12 31.9492C12.4405 31.9492 12.8547 31.7417 13.1156 31.3903L21.6677 19.8723C25.127 15.2133 24.6974 8.76465 20.6499 4.59614ZM12 18.9492C15.3137 18.9492 18 16.2629 18 12.9492C18 9.63551 15.3137 6.94922 12 6.94922C8.68629 6.94922 6 9.63551 6 12.9492C6 16.2629 8.68629 18.9492 12 18.9492Z" fill="white"/>
</svg>
