<svg width="12" height="12" viewBox="0 0 12 12" fill="none" xmlns="http://www.w3.org/2000/svg">
<path fill-rule="evenodd" clip-rule="evenodd" d="M0.410582 0.410582C0.736019 0.0851447 1.26366 0.0851447 1.58909 0.410582L11.5891 10.4106C11.9145 10.736 11.9145 11.2637 11.5891 11.5891C11.2637 11.9145 10.736 11.9145 10.4106 11.5891L0.410582 1.58909C0.0851447 1.26366 0.0851447 0.736019 0.410582 0.410582Z" fill="white"/>
<path fill-rule="evenodd" clip-rule="evenodd" d="M0.410582 11.5889C0.0851447 11.2635 0.0851447 10.7359 0.410582 10.4104L10.4106 0.410419C10.736 0.084981 11.2637 0.084981 11.5891 0.410419C11.9145 0.735855 11.9145 1.26349 11.5891 1.58893L1.58909 11.5889C1.26366 11.9144 0.736019 11.9144 0.410582 11.5889Z" fill="white"/>
</svg>
