<svg width="20" height="20" viewBox="0 0 20 20" fill="none" xmlns="http://www.w3.org/2000/svg">
<path fill-rule="evenodd" clip-rule="evenodd" d="M3.5416 3.55449C3.86522 3.22725 4.39285 3.22432 4.72009 3.54795L10.6185 9.38128C10.7764 9.53737 10.8654 9.74997 10.8659 9.97194C10.8664 10.1939 10.7783 10.4069 10.6212 10.5637L4.72272 16.4491C4.39692 16.7742 3.86929 16.7736 3.54421 16.4478C3.21913 16.122 3.21971 15.5944 3.54551 15.2693L8.8501 9.97642L3.54814 4.73298C3.2209 4.40935 3.21797 3.88172 3.5416 3.55449Z" fill="#828282"/>
<path fill-rule="evenodd" clip-rule="evenodd" d="M9.37485 3.55449C9.69848 3.22725 10.2261 3.22432 10.5533 3.54795L16.4518 9.38128C16.6096 9.53737 16.6986 9.74997 16.6991 9.97194C16.6996 10.1939 16.6115 10.4069 16.4544 10.5637L10.556 16.4491C10.2302 16.7742 9.70254 16.7736 9.37746 16.4478C9.05238 16.122 9.05297 15.5944 9.37876 15.2693L14.6834 9.97642L9.38139 4.73298C9.05415 4.40935 9.05122 3.88172 9.37485 3.55449Z" fill="#828282"/>
</svg>
