<svg width="32" height="32" viewBox="0 0 32 32" fill="none" xmlns="http://www.w3.org/2000/svg">
<path d="M11.375 25.0542V6.94629H26.625C27.1773 6.94629 27.625 7.394 27.625 7.94629V23.0542C27.625 24.1588 26.7296 25.0542 25.625 25.0542H11.375Z" stroke="white" stroke-width="1.4"/>
<path d="M4.375 6.94629H11.375L7.75 15.1963H0.75L4.375 6.94629Z" stroke="white" stroke-width="1.4" stroke-linejoin="round"/>
<path d="M31.25 14.4463H27.625V7.94629L31.25 14.4463Z" stroke="white" stroke-width="1.4" stroke-linejoin="round"/>
<path d="M5.4375 15.1963V23.0542C5.4375 24.1588 6.33293 25.0542 7.4375 25.0542H11.375" stroke="white" stroke-width="1.4"/>
<path d="M17.6562 6.94629V7.97754C17.6562 9.08211 18.5517 9.97754 19.6562 9.97754H19.875C20.9796 9.97754 21.875 9.08211 21.875 7.97754V6.94629" stroke="white" stroke-width="1.4"/>
<path d="M17.6461 20.6053V25.0543H21.7173V20.6053H24.7812L19.7866 15.2329L14.75 20.6053H17.6461Z" stroke="white" stroke-width="1.4" stroke-linejoin="round"/>
</svg>
