<svg width="32" height="32" viewBox="0 0 32 32" fill="none" xmlns="http://www.w3.org/2000/svg">
<path d="M7.6592 10.124H4.49463C3.39006 10.124 2.49463 11.0194 2.49463 12.124V24.3594C2.49463 25.4639 3.39006 26.3594 4.49463 26.3594H27.5055C28.61 26.3594 29.5055 25.4639 29.5055 24.3594V12.124C29.5055 11.0194 28.61 10.124 27.5055 10.124H26.6363M7.6592 10.124L23.0977 6.08287C24.0655 5.82953 25.0717 6.33029 25.4531 7.25514L26.6363 10.124M7.6592 10.124H26.6363" stroke="white" stroke-width="1.4"/>
<path d="M11.1543 10.2515V16.3256C11.1543 18.5347 12.9452 20.3256 15.1543 20.3256H16.8458C19.055 20.3256 20.8458 18.5347 20.8458 16.3256V10.2515" stroke="white" stroke-width="1.4"/>
<path d="M16 13.7886C16.8284 13.7886 17.5 14.4601 17.5 15.2886C17.5 16.117 16.8284 16.7886 16 16.7886C15.1716 16.7886 14.5 16.117 14.5 15.2886C14.5 14.4601 15.1716 13.7886 16 13.7886Z" stroke="white" stroke-width="1.4"/>
<path d="M6.00146 14.5669V19.4647V22.3625" stroke="white" stroke-width="1.4" stroke-linecap="round"/>
</svg>
