<svg width="33" height="33" viewBox="0 0 33 33" fill="none" xmlns="http://www.w3.org/2000/svg">
<path fill-rule="evenodd" clip-rule="evenodd" d="M8.97051 28.7695L26.6482 11.0918C27.8197 9.92023 27.8197 8.02073 26.6482 6.84916C25.4766 5.67759 23.5771 5.67759 22.4055 6.84916L4.72787 24.5268L8.97051 28.7695ZM28.0624 5.43495C26.1098 3.48233 22.9439 3.48233 20.9913 5.43495L3.31365 23.1126C2.5326 23.8937 2.5326 25.16 3.31365 25.941L7.55629 30.1837C8.33734 30.9647 9.60367 30.9647 10.3847 30.1837L28.0624 12.506C30.015 10.5534 30.015 7.38757 28.0624 5.43495Z" fill="white"/>
<path d="M25.5875 10.0311C25.0017 10.6169 24.052 10.6169 23.4662 10.0311C22.8804 9.44532 22.8804 8.49557 23.4662 7.90978C24.052 7.32399 25.0017 7.32399 25.5875 7.90978C26.1733 8.49557 26.1733 9.44532 25.5875 10.0311Z" fill="white"/>
<path fill-rule="evenodd" clip-rule="evenodd" d="M22.0522 12.1524C22.2475 11.9571 22.5641 11.9571 22.7593 12.1524L24.8806 14.2737C25.0759 14.469 25.0759 14.7855 24.8806 14.9808C24.6854 15.1761 24.3688 15.1761 24.1735 14.9808L22.0522 12.8595C21.8569 12.6642 21.8569 12.3476 22.0522 12.1524Z" fill="white"/>
<path fill-rule="evenodd" clip-rule="evenodd" d="M19.9306 14.274C20.1259 14.0787 20.4425 14.0787 20.6377 14.274L22.7591 16.3953C22.9543 16.5905 22.9543 16.9071 22.7591 17.1024C22.5638 17.2977 22.2472 17.2977 22.0519 17.1024L19.9306 14.9811C19.7354 14.7858 19.7354 14.4692 19.9306 14.274Z" fill="white"/>
<path fill-rule="evenodd" clip-rule="evenodd" d="M17.8095 16.3951C18.0048 16.1998 18.3214 16.1998 18.5166 16.3951L20.638 18.5164C20.8332 18.7116 20.8332 19.0282 20.638 19.2235C20.4427 19.4187 20.1261 19.4187 19.9309 19.2235L17.8095 17.1022C17.6143 16.9069 17.6143 16.5903 17.8095 16.3951Z" fill="white"/>
<path fill-rule="evenodd" clip-rule="evenodd" d="M15.688 18.5166C15.8832 18.3214 16.1998 18.3214 16.3951 18.5166L18.5164 20.638C18.7116 20.8332 18.7116 21.1498 18.5164 21.3451C18.3211 21.5403 18.0045 21.5403 17.8093 21.3451L15.688 19.2237C15.4927 19.0285 15.4927 18.7119 15.688 18.5166Z" fill="white"/>
<path fill-rule="evenodd" clip-rule="evenodd" d="M13.5669 20.6377C13.7621 20.4425 14.0787 20.4425 14.274 20.6377L16.3953 22.7591C16.5905 22.9543 16.5905 23.2709 16.3953 23.4662C16.2 23.6614 15.8834 23.6614 15.6882 23.4662L13.5669 21.3448C13.3716 21.1496 13.3716 20.833 13.5669 20.6377Z" fill="white"/>
<path fill-rule="evenodd" clip-rule="evenodd" d="M11.4453 22.7588C11.6405 22.5636 11.9571 22.5636 12.1524 22.7588L14.2737 24.8801C14.469 25.0754 14.469 25.392 14.2737 25.5873C14.0784 25.7825 13.7619 25.7825 13.5666 25.5873L11.4453 23.4659C11.25 23.2707 11.25 22.9541 11.4453 22.7588Z" fill="white"/>
<path fill-rule="evenodd" clip-rule="evenodd" d="M9.32418 24.8804C9.51944 24.6851 9.83603 24.6851 10.0313 24.8804L12.1526 27.0017C12.3479 27.197 12.3479 27.5136 12.1526 27.7088C11.9573 27.9041 11.6408 27.9041 11.4455 27.7088L9.32418 25.5875C9.12892 25.3923 9.12892 25.0757 9.32418 24.8804Z" fill="white"/>
<path fill-rule="evenodd" clip-rule="evenodd" d="M14.9809 12.1524C15.1762 11.9571 15.4928 11.9571 15.688 12.1524L17.1022 13.5666C17.2975 13.7619 17.2975 14.0784 17.1022 14.2737C16.907 14.469 16.5904 14.469 16.3951 14.2737L14.9809 12.8595C14.7857 12.6642 14.7857 12.3476 14.9809 12.1524Z" fill="white"/>
<path fill-rule="evenodd" clip-rule="evenodd" d="M13.5669 13.5664C13.7621 13.3712 14.0787 13.3712 14.274 13.5664L15.6882 14.9807C15.8834 15.1759 15.8834 15.4925 15.6882 15.6878C15.4929 15.883 15.1763 15.883 14.9811 15.6878L13.5669 14.2736C13.3716 14.0783 13.3716 13.7617 13.5669 13.5664Z" fill="white"/>
<path fill-rule="evenodd" clip-rule="evenodd" d="M12.1523 14.981C12.3476 14.7857 12.6642 14.7857 12.8594 14.981L14.2736 16.3952C14.4689 16.5905 14.4689 16.9071 14.2736 17.1023C14.0784 17.2976 13.7618 17.2976 13.5665 17.1023L12.1523 15.6881C11.957 15.4928 11.957 15.1763 12.1523 14.981Z" fill="white"/>
<path fill-rule="evenodd" clip-rule="evenodd" d="M10.7382 16.3951C10.9335 16.1998 11.2501 16.1998 11.4454 16.3951L12.8596 17.8093C13.0548 18.0045 13.0548 18.3211 12.8596 18.5164C12.6643 18.7116 12.3477 18.7116 12.1525 18.5164L10.7382 17.1022C10.543 16.9069 10.543 16.5903 10.7382 16.3951Z" fill="white"/>
<path fill-rule="evenodd" clip-rule="evenodd" d="M9.32418 17.8091C9.51944 17.6139 9.83603 17.6139 10.0313 17.8091L11.4455 19.2233C11.6408 19.4186 11.6408 19.7352 11.4455 19.9304C11.2502 20.1257 10.9337 20.1257 10.7384 19.9304L9.32418 18.5162C9.12892 18.321 9.12892 18.0044 9.32418 17.8091Z" fill="white"/>
<path fill-rule="evenodd" clip-rule="evenodd" d="M7.90963 19.2237C8.10489 19.0284 8.42147 19.0284 8.61674 19.2237L10.031 20.6379C10.2262 20.8331 10.2262 21.1497 10.031 21.345C9.83569 21.5403 9.51911 21.5403 9.32384 21.345L7.90963 19.9308C7.71437 19.7355 7.71437 19.4189 7.90963 19.2237Z" fill="white"/>
<path fill-rule="evenodd" clip-rule="evenodd" d="M6.49557 20.6377C6.69083 20.4425 7.00741 20.4425 7.20267 20.6377L8.61689 22.0519C8.81215 22.2472 8.81215 22.5638 8.61689 22.7591C8.42163 22.9543 8.10504 22.9543 7.90978 22.7591L6.49557 21.3448C6.30031 21.1496 6.30031 20.833 6.49557 20.6377Z" fill="white"/>
<path fill-rule="evenodd" clip-rule="evenodd" d="M29.4765 26.648L21.6984 18.8698L18.8699 21.6982L26.6481 29.4764L29.4765 26.648ZM16.0415 21.6982L25.2339 30.8906C26.0149 31.6717 27.2813 31.6717 28.0623 30.8906L30.8907 28.0622C31.6718 27.2812 31.6718 26.0148 30.8907 25.2338L21.6984 16.0414L16.0415 21.6982Z" fill="white"/>
<path fill-rule="evenodd" clip-rule="evenodd" d="M11.092 5.43498L3.31378 3.31366L5.4351 11.0918L10.3848 16.0416C11.1659 16.8226 12.4322 16.8226 13.2133 16.0416L16.0417 13.2132C16.8227 12.4321 16.8227 11.1658 16.0417 10.3847L11.092 5.43498ZM6.16422 6.1641L7.22488 10.0532L11.7991 14.6274L14.6275 11.7989L10.0533 7.22476L6.16422 6.1641Z" fill="white"/>
<path fill-rule="evenodd" clip-rule="evenodd" d="M21.3448 26.2945C21.1495 26.0992 21.1495 25.7826 21.3448 25.5874L25.5874 21.3447C25.7827 21.1495 26.0992 21.1495 26.2945 21.3447C26.4898 21.54 26.4898 21.8566 26.2945 22.0518L22.0519 26.2945C21.8566 26.4897 21.54 26.4897 21.3448 26.2945Z" fill="white"/>
<path fill-rule="evenodd" clip-rule="evenodd" d="M23.4663 28.4161C23.2711 28.2208 23.2711 27.9042 23.4663 27.7089L27.709 23.4663C27.9042 23.271 28.2208 23.271 28.4161 23.4663C28.6114 23.6616 28.6114 23.9782 28.4161 24.1734L24.1735 28.4161C23.9782 28.6113 23.6616 28.6113 23.4663 28.4161Z" fill="white"/>
<path fill-rule="evenodd" clip-rule="evenodd" d="M11.7344 6.58638C11.4859 9.32 9.32005 11.4859 6.58643 11.7344L6.40536 9.74259C8.17748 9.58149 9.58154 8.17743 9.74264 6.40531L11.7344 6.58638Z" fill="white"/>
</svg>
