<svg width="20" height="20" viewBox="0 0 20 20" fill="none" xmlns="http://www.w3.org/2000/svg">
<path fill-rule="evenodd" clip-rule="evenodd" d="M9.99992 17.5002C14.1421 17.5002 17.4999 14.1423 17.4999 10.0002C17.4999 5.85803 14.1421 2.50016 9.99992 2.50016C5.85778 2.50016 2.49992 5.85803 2.49992 10.0002C2.49992 14.1423 5.85778 17.5002 9.99992 17.5002ZM9.99992 19.1668C15.0625 19.1668 19.1666 15.0628 19.1666 10.0002C19.1666 4.93755 15.0625 0.833496 9.99992 0.833496C4.93731 0.833496 0.833252 4.93755 0.833252 10.0002C0.833252 15.0628 4.93731 19.1668 9.99992 19.1668ZM10.8333 15V8.33333H9.16667V15H10.8333ZM10.8333 5H9.16667V6.66667H10.8333V5Z" fill="#BDBDBD"/>
</svg>
