<svg width="159" height="147" viewBox="0 0 159 147" fill="none" xmlns="http://www.w3.org/2000/svg">
<g opacity="0.4">
<path d="M56 73.6C56 88.9333 54.3333 102.067 51 113C47.8 123.933 42.5333 132.333 35.2 138.2C28 144.067 18.2666 147 5.99995 147C-11.2001 147 -23.8 140.533 -31.8 127.6C-39.8 114.533 -43.8 96.5333 -43.8 73.6C-43.8 58.1333 -42.2 44.9333 -39 34C-35.8 23.0667 -30.5334 14.6667 -23.2 8.79999C-15.8667 2.93333 -6.13338 0 5.99995 0C23.0666 0 35.6666 6.46666 43.8 19.4C51.9333 32.3333 56 50.4 56 73.6ZM-13.8 73.6C-13.8 89.8667 -12.4 102.133 -9.60005 110.4C-6.80005 118.533 -1.60005 122.6 5.99995 122.6C13.4666 122.6 18.6666 118.533 21.6 110.4C24.5333 102.267 26 90 26 73.6C26 57.3333 24.5333 45.0667 21.6 36.8C18.6666 28.5333 13.4666 24.4 5.99995 24.4C-1.60005 24.4 -6.80005 28.5333 -9.60005 36.8C-12.4 45.0667 -13.8 57.3333 -13.8 73.6Z" fill="#886BD9"/>
<path d="M158.053 145H127.853V62.4C127.853 58.9333 127.92 54.4 128.053 48.8C128.32 43.2 128.52 38.2667 128.653 34C127.986 34.8 126.52 36.2667 124.253 38.4C122.12 40.4 120.12 42.2 118.253 43.8L101.853 57L87.2531 38.8L133.253 2.2H158.053V145Z" fill="#886BD9"/>
</g>
</svg>
