<svg width="184" height="147" viewBox="0 0 184 147" fill="none" xmlns="http://www.w3.org/2000/svg">
<g opacity="0.4">
<path d="M56 73.6C56 88.9333 54.3333 102.067 51 113C47.8 123.933 42.5333 132.333 35.2 138.2C28 144.067 18.2666 147 5.99995 147C-11.2001 147 -23.8 140.533 -31.8 127.6C-39.8 114.533 -43.8 96.5333 -43.8 73.6C-43.8 58.1333 -42.2 44.9333 -39 34C-35.8 23.0667 -30.5334 14.6667 -23.2 8.79999C-15.8667 2.93333 -6.13338 0 5.99995 0C23.0666 0 35.6666 6.46666 43.8 19.4C51.9333 32.3333 56 50.4 56 73.6ZM-13.8 73.6C-13.8 89.8667 -12.4 102.133 -9.60005 110.4C-6.80005 118.533 -1.60005 122.6 5.99995 122.6C13.4666 122.6 18.6666 118.533 21.6 110.4C24.5333 102.267 26 90 26 73.6C26 57.3333 24.5333 45.0667 21.6 36.8C18.6666 28.5333 13.4666 24.4 5.99995 24.4C-1.60005 24.4 -6.80005 28.5333 -9.60005 36.8C-12.4 45.0667 -13.8 57.3333 -13.8 73.6Z" fill="#828282"/>
<path d="M183.253 145H83.4531V124L119.253 87.8C126.453 80.3333 132.253 74.1333 136.653 69.2C141.053 64.1333 144.253 59.6 146.253 55.6C148.253 51.4667 149.253 47.0667 149.253 42.4C149.253 36.6667 147.653 32.4 144.453 29.6C141.386 26.8 137.186 25.4 131.853 25.4C126.386 25.4 121.053 26.6667 115.853 29.2C110.653 31.7333 105.186 35.3333 99.4531 40L83.0531 20.6C87.1864 17 91.5197 13.6667 96.0531 10.6C100.72 7.53333 106.053 5.06666 112.053 3.19999C118.186 1.2 125.52 0.199997 134.053 0.199997C143.386 0.199997 151.386 1.93333 158.053 5.4C164.853 8.73333 170.053 13.3333 173.653 19.2C177.386 24.9333 179.253 31.4667 179.253 38.8C179.253 46.6667 177.653 53.8667 174.453 60.4C171.386 66.9333 166.853 73.4 160.853 79.8C154.986 86.2 147.853 93.2667 139.453 101L121.053 118.2V119.6H183.253V145Z" fill="#828282"/>
</g>
</svg>
