<svg width="614" height="144" viewBox="0 0 614 144" fill="none" xmlns="http://www.w3.org/2000/svg">
<path opacity="0.4" d="M105.435 144L95.0352 110H43.0352L32.6352 144H0.0351562L50.4352 0.599998H87.4352L138.035 144H105.435ZM87.8352 84.6L77.4352 51.4C76.7685 49.1333 75.9018 46.2667 74.8352 42.8C73.7685 39.3333 72.7018 35.8 71.6352 32.2C70.5685 28.6 69.7018 25.4667 69.0352 22.8C68.3685 25.4667 67.4352 28.8 66.2352 32.8C65.1685 36.6667 64.1018 40.4 63.0352 44C62.1018 47.4667 61.3685 49.9333 60.8352 51.4L50.6352 84.6H87.8352ZM168.121 144V1.19999H198.321V119H256.321V144H168.121ZM353.607 144L319.207 32H318.407C318.54 34.6667 318.74 38.6667 319.007 44C319.274 49.3333 319.54 55.0667 319.807 61.2C320.074 67.2 320.207 72.6667 320.207 77.6V144H293.207V1.19999H334.407L368.207 110.4H368.807L404.607 1.19999H445.807V144H417.607V76.4C417.607 71.8667 417.674 66.6667 417.807 60.8C418.074 54.9333 418.274 49.4 418.407 44.2C418.674 38.8667 418.874 34.8667 419.007 32.2H418.207L381.407 144H353.607ZM581.279 144L570.879 110H518.879L508.479 144H475.879L526.279 0.599998H563.279L613.879 144H581.279ZM563.679 84.6L553.279 51.4C552.612 49.1333 551.746 46.2667 550.679 42.8C549.612 39.3333 548.546 35.8 547.479 32.2C546.412 28.6 545.546 25.4667 544.879 22.8C544.212 25.4667 543.279 28.8 542.079 32.8C541.012 36.6667 539.946 40.4 538.879 44C537.946 47.4667 537.212 49.9333 536.679 51.4L526.479 84.6H563.679Z" fill="#363636"/>
</svg>
