<svg width="20" height="20" viewBox="0 0 20 20" fill="none" xmlns="http://www.w3.org/2000/svg">
<path fill-rule="evenodd" clip-rule="evenodd" d="M3.5416 3.55473C3.86522 3.22749 4.39285 3.22456 4.72009 3.54819L10.6185 9.38152C10.7764 9.53761 10.8654 9.75021 10.8659 9.97219C10.8664 10.1942 10.7783 10.4072 10.6212 10.5639L4.72272 16.4494C4.39692 16.7744 3.86928 16.7739 3.54421 16.4481C3.21913 16.1223 3.21971 15.5946 3.54551 15.2695L8.8501 9.97667L3.54814 4.73322C3.2209 4.4096 3.21797 3.88197 3.5416 3.55473Z" fill="white"/>
<path fill-rule="evenodd" clip-rule="evenodd" d="M9.37509 3.55473C9.69872 3.22749 10.2263 3.22456 10.5536 3.54819L16.452 9.38152C16.6099 9.53761 16.6989 9.75021 16.6994 9.97219C16.6999 10.1942 16.6118 10.4072 16.4547 10.5639L10.5562 16.4494C10.2304 16.7744 9.70278 16.7739 9.3777 16.4481C9.05263 16.1223 9.05321 15.5946 9.37901 15.2695L14.6836 9.97667L9.38163 4.73322C9.0544 4.4096 9.05147 3.88197 9.37509 3.55473Z" fill="white"/>
</svg>
