<svg width="24" height="24" viewBox="0 0 24 24" fill="none" xmlns="http://www.w3.org/2000/svg">
<path fill-rule="evenodd" clip-rule="evenodd" d="M4.2498 4.26558C4.63815 3.87289 5.2713 3.86938 5.66399 4.25773L12.7421 11.2577C12.9315 11.445 13.0383 11.7002 13.0389 11.9665C13.0395 12.2329 12.9338 12.4885 12.7453 12.6766L5.66714 19.7391C5.27618 20.1292 4.64302 20.1285 4.25293 19.7376C3.86284 19.3466 3.86353 18.7135 4.25449 18.3234L10.62 11.9719L4.25764 5.67977C3.86496 5.29142 3.86144 4.65826 4.2498 4.26558Z" fill="white"/>
<path fill-rule="evenodd" clip-rule="evenodd" d="M11.2498 4.26558C11.6381 3.87289 12.2713 3.86938 12.664 4.25773L19.7421 11.2577C19.9315 11.445 20.0383 11.7002 20.0389 11.9665C20.0395 12.2329 19.9338 12.4885 19.7453 12.6766L12.6671 19.7391C12.2762 20.1292 11.643 20.1285 11.2529 19.7376C10.8628 19.3466 10.8635 18.7135 11.2545 18.3234L17.62 11.9719L11.2576 5.67977C10.865 5.29142 10.8614 4.65826 11.2498 4.26558Z" fill="white"/>
</svg>
