<svg width="17" height="18" viewBox="0 0 17 18" fill="none" xmlns="http://www.w3.org/2000/svg">
<path fill-rule="evenodd" clip-rule="evenodd" d="M16.172 16.7344C15.7836 17.1271 15.1505 17.1306 14.7578 16.7423L7.67964 9.74227C7.49025 9.55497 7.38341 9.29984 7.38282 9.03347C7.38222 8.7671 7.48793 8.51151 7.67649 8.32336L14.7546 1.26086C15.1456 0.87077 15.7787 0.871469 16.1688 1.26243C16.5589 1.65338 16.5582 2.28654 16.1673 2.67664L9.80175 9.0281L16.1641 15.3202C16.5568 15.7086 16.5603 16.3417 16.172 16.7344Z" fill="white"/>
<path fill-rule="evenodd" clip-rule="evenodd" d="M9.17196 16.7344C8.78361 17.1271 8.15045 17.1306 7.75777 16.7423L0.679641 9.74227C0.490246 9.55497 0.383407 9.29984 0.382815 9.03347C0.382223 8.7671 0.487927 8.51151 0.676487 8.32336L7.75461 1.26086C8.14557 0.87077 8.77873 0.871469 9.16883 1.26243C9.55892 1.65338 9.55822 2.28654 9.16726 2.67664L2.80175 9.0281L9.16411 15.3202C9.55679 15.7086 9.56031 16.3417 9.17196 16.7344Z" fill="white"/>
</svg>
