<svg width="24" height="24" viewBox="0 0 24 24" fill="none" xmlns="http://www.w3.org/2000/svg">
<path fill-rule="evenodd" clip-rule="evenodd" d="M13.3331 21.9119C18.2256 21.2601 21.9999 17.0708 21.9999 12C21.9999 6.47715 17.5227 2 11.9999 2C6.47703 2 1.99988 6.47715 1.99988 12C1.99988 16.9383 5.57946 21.0406 10.2855 21.8536V15.0244H7.99976V12.1561H10.2855V10.1073V9.69751C10.2855 7.66077 11.6815 5.85143 13.714 6.00966C15.0921 6.11694 15.9998 6.22649 15.9998 6.22649V8.87799H14.095C13.6742 8.87799 13.3331 9.2449 13.3331 9.69751V12.1561H15.9998L15.6188 15.0244H13.3331V21.9119Z" fill="#BDBDBD"/>
</svg>
