<svg width="24" height="24" viewBox="0 0 24 24" fill="none" xmlns="http://www.w3.org/2000/svg">
<path fill-rule="evenodd" clip-rule="evenodd" d="M5.99988 7.99951C5.99988 8.5518 6 8.99951 6 8.99951L2 8.99951C1.44772 8.99951 1 8.5518 1 7.99951C1 7.44723 1.44772 6.99951 2 6.99951L6 6.99951C6 6.99951 5.99988 7.44723 5.99988 7.99951Z" fill="white"/>
<path fill-rule="evenodd" clip-rule="evenodd" d="M23 7.99951C23 8.5518 22.5523 8.99951 22 8.99951L10 8.99951C10 8.99951 10 8.5518 10 7.99951C10 7.44723 10 6.99951 10 6.99951L22 6.99951C22.5523 6.99951 23 7.44723 23 7.99951Z" fill="white"/>
<path d="M8 9.99951C6.89543 9.99951 6 9.10408 6 7.99951C6 6.89494 6.89543 5.99951 8 5.99951C9.10457 5.99951 10 6.89494 10 7.99951C10 9.10408 9.10457 9.99951 8 9.99951Z" stroke="white" stroke-width="2"/>
<path fill-rule="evenodd" clip-rule="evenodd" d="M18.0001 15.9995C18.0001 16.5518 18 16.9995 18 16.9995L22 16.9995C22.5523 16.9995 23 16.5518 23 15.9995C23 15.4472 22.5523 14.9995 22 14.9995L18 14.9995C18 14.9995 18.0001 15.4472 18.0001 15.9995Z" fill="white"/>
<path fill-rule="evenodd" clip-rule="evenodd" d="M1 15.9995C1 16.5518 1.44772 16.9995 2 16.9995L14 16.9995C14 16.9995 14 16.5518 14 15.9995C14 15.4472 14 14.9995 14 14.9995L2 14.9995C1.44772 14.9995 1 15.4472 1 15.9995Z" fill="white"/>
<path d="M16 17.9995C17.1046 17.9995 18 17.1041 18 15.9995C18 14.8949 17.1046 13.9995 16 13.9995C14.8954 13.9995 14 14.8949 14 15.9995C14 17.1041 14.8954 17.9995 16 17.9995Z" stroke="white" stroke-width="2"/>
</svg>
