<svg width="21" height="20" viewBox="0 0 21 20" fill="none" xmlns="http://www.w3.org/2000/svg">
<path d="M10.9468 1.8025C13.6168 1.8025 13.9334 1.8125 14.9884 1.86083C17.6984 1.98417 18.9643 3.27 19.0876 5.96C19.1359 7.01417 19.1451 7.33083 19.1451 10.0008C19.1451 12.6717 19.1351 12.9875 19.0876 14.0417C18.9634 16.7292 17.7009 18.0175 14.9884 18.1408C13.9334 18.1892 13.6184 18.1992 10.9468 18.1992C8.27678 18.1992 7.96011 18.1892 6.90594 18.1408C4.18928 18.0167 2.93011 16.725 2.80678 14.0408C2.75844 12.9867 2.74844 12.6708 2.74844 10C2.74844 7.33 2.75928 7.01417 2.80678 5.95917C2.93094 3.27 4.19344 1.98333 6.90594 1.86C7.96094 1.8125 8.27678 1.8025 10.9468 1.8025ZM10.9468 0C8.23094 0 7.89094 0.0116667 6.82428 0.06C3.19261 0.226667 1.17428 2.24167 1.00761 5.87667C0.958444 6.94417 0.946777 7.28417 0.946777 10C0.946777 12.7158 0.958444 13.0567 1.00678 14.1233C1.17344 17.755 3.18844 19.7733 6.82344 19.94C7.89094 19.9883 8.23094 20 10.9468 20C13.6626 20 14.0034 19.9883 15.0701 19.94C18.6984 19.7733 20.7218 17.7583 20.8859 14.1233C20.9351 13.0567 20.9468 12.7158 20.9468 10C20.9468 7.28417 20.9351 6.94417 20.8868 5.8775C20.7234 2.24917 18.7059 0.2275 15.0709 0.0608333C14.0034 0.0116667 13.6626 0 10.9468 0V0ZM10.9468 4.865C8.11094 4.865 5.81178 7.16417 5.81178 10C5.81178 12.8358 8.11094 15.1358 10.9468 15.1358C13.7826 15.1358 16.0818 12.8367 16.0818 10C16.0818 7.16417 13.7826 4.865 10.9468 4.865ZM10.9468 13.3333C9.10594 13.3333 7.61344 11.8417 7.61344 10C7.61344 8.15917 9.10594 6.66667 10.9468 6.66667C12.7876 6.66667 14.2801 8.15917 14.2801 10C14.2801 11.8417 12.7876 13.3333 10.9468 13.3333ZM16.2851 3.4625C15.6218 3.4625 15.0843 4 15.0843 4.6625C15.0843 5.325 15.6218 5.8625 16.2851 5.8625C16.9476 5.8625 17.4843 5.325 17.4843 4.6625C17.4843 4 16.9476 3.4625 16.2851 3.4625Z" fill="#BDBDBD"/>
</svg>
