<svg width="20" height="17" viewBox="0 0 20 17" fill="none" xmlns="http://www.w3.org/2000/svg">
<path fill-rule="evenodd" clip-rule="evenodd" d="M1.66671 8C2.12694 8 2.50004 8.3731 2.50004 8.83333V14.6667H17.5V8.83333C17.5 8.3731 17.8731 8 18.3334 8C18.7936 8 19.1667 8.3731 19.1667 8.83333V14.6667C19.1667 15.5871 18.4205 16.3333 17.5 16.3333H2.50004C1.57957 16.3333 0.833374 15.5871 0.833374 14.6667V8.83333C0.833374 8.3731 1.20647 8 1.66671 8Z" fill="white"/>
<path fill-rule="evenodd" clip-rule="evenodd" d="M0 5.40209V3C0 1.61929 1.11929 0.5 2.5 0.5H17.5C18.8807 0.5 20 1.61929 20 3V5.86883L10.22 10.7013L0 5.40209ZM10.2381 8.83333L1.66667 4.38889V3C1.66667 2.53976 2.03976 2.16667 2.5 2.16667H17.5C17.9602 2.16667 18.3333 2.53976 18.3333 3V4.83333L10.2381 8.83333Z" fill="white"/>
</svg>
