<svg width="15" height="20" viewBox="0 0 15 20" fill="none" xmlns="http://www.w3.org/2000/svg">
<circle cx="7.7217" cy="8.00496" r="2.5" stroke="white" stroke-width="1.66667"/>
<path fill-rule="evenodd" clip-rule="evenodd" d="M11.7254 4.20469C9.53995 1.93177 5.90292 1.93177 3.71742 4.20469C1.84386 6.15319 1.64498 9.1675 3.24628 11.3453L7.72143 17.4315L12.1966 11.3453C13.7979 9.1675 13.599 6.15319 11.7254 4.20469ZM2.51603 3.04951C5.35728 0.0946104 10.0856 0.0946096 12.9268 3.04951C15.3625 5.58265 15.6211 9.50139 13.5393 12.3326L8.39281 19.3319C8.23578 19.5454 7.98651 19.6715 7.72143 19.6715C7.45635 19.6715 7.20709 19.5454 7.05006 19.3319L1.90353 12.3326C-0.178235 9.50138 0.0803243 5.58265 2.51603 3.04951Z" fill="white"/>
</svg>
