<svg width="24" height="24" viewBox="0 0 24 24" fill="none" xmlns="http://www.w3.org/2000/svg">
<path d="M13.1615 18.9938C13.7704 18.9938 14.0194 18.5878 14.0124 18.0788C13.9814 16.1619 14.7264 15.1299 16.0713 16.4749C17.5593 17.9628 17.8673 18.9938 19.6742 18.9938H22.874C23.682 18.9938 24 18.7338 24 18.3258C24 17.4628 22.5791 15.9399 21.3751 14.8219C19.6892 13.2569 19.6102 13.2199 21.0621 11.3359C22.863 8.99695 25.2189 5.99999 23.135 5.99999H19.1542C18.3822 5.99999 18.3262 6.43498 18.0512 7.08297C17.0563 9.42994 15.1654 12.4699 14.4474 12.0049C13.6964 11.5199 14.0404 9.59894 14.0974 6.74398C14.1124 5.98999 14.1084 5.47299 12.9565 5.205C12.3275 5.06 11.7155 5 11.1475 5C8.87463 5 7.3067 5.95299 8.19766 6.11899C9.76859 6.41198 9.6176 9.81094 9.25161 11.2789C8.61364 13.8349 6.21574 9.25494 5.21678 6.97397C4.97579 6.42598 4.9018 5.99999 4.04183 5.99999H0.786967C0.294988 5.99999 0 6.15998 0 6.51598C0 7.11797 2.95988 13.2359 5.78576 16.2859C8.54164 19.2608 11.2655 18.9938 13.1615 18.9938Z" fill="#BDBDBD"/>
</svg>
